<svg width="24" height="28" viewBox="0 0 24 28" fill="none" xmlns="http://www.w3.org/2000/svg">
<g clip-path="url(#clip0_306_3130)">
<path d="M3.39196 24.0585C4.40895 25.5224 5.79949 27.5242 7.59357 27.5242V27.5207H7.68498C8.36984 27.4773 9.03946 27.2981 9.65543 26.9933H9.67267C10.4523 26.6122 11.3069 26.4123 12.1735 26.4086C13.0034 26.4177 13.8208 26.613 14.5664 26.9803H14.5716C15.1946 27.2965 15.88 27.4681 16.5774 27.4825H16.6792C18.4841 27.4555 19.6378 25.9386 20.8451 24.1089C21.6739 22.9137 22.3163 21.5979 22.75 20.2071V20.2002C22.0704 19.9119 21.4494 19.4995 20.9184 18.9838C20.332 18.4263 19.8666 17.7526 19.5513 17.005C19.2361 16.2574 19.078 15.452 19.0868 14.6398C19.1038 13.5856 19.3836 12.5526 19.9003 11.6356C20.4169 10.7187 21.154 9.94733 22.0438 9.39223C21.4766 8.57727 20.7289 7.90651 19.8599 7.43302C18.9909 6.95953 18.0245 6.69631 17.037 6.66419C16.8724 6.64942 16.7249 6.6416 16.5989 6.6416C15.5096 6.71056 14.4425 6.98338 13.4523 7.44611H13.4316C12.9223 7.69486 12.3757 7.85691 11.8139 7.92569C11.2214 7.86246 10.6448 7.69391 10.1107 7.42787H10.0918C9.23578 7.01856 8.30992 6.77821 7.36419 6.7198H7.28658C6.13538 6.75628 5.01323 7.09282 4.02964 7.69656C3.04603 8.30031 2.23459 9.15065 1.67449 10.1646C0.545416 12.3995 0.217626 14.959 0.746607 17.4095C1.16348 19.782 2.0618 22.0423 3.38536 24.0489L3.39196 24.0585Z" fill="white"/>
<path d="M11.6 6.344C11.6889 6.35197 11.7781 6.35546 11.8674 6.35443C12.5995 6.31719 13.3157 6.12494 13.9691 5.79023C14.6225 5.4555 15.1987 4.98583 15.6599 4.41178C16.6822 3.18276 17.1844 1.59846 17.0586 0C15.5035 0.163702 14.0668 0.911959 13.035 2.09555C12.0165 3.26402 11.5004 4.79218 11.6 6.344Z" fill="white"/>
</g>
<defs>
<clipPath id="clip0_306_3130">
<rect width="23" height="28" fill="white" transform="translate(0.5)"/>
</clipPath>
</defs>
</svg>
