<svg width="35" height="18" viewBox="0 0 35 18" fill="none" xmlns="http://www.w3.org/2000/svg">
<path d="M10.7243 16.7813C10.0189 17.4721 8.87499 17.4711 8.17079 16.7791L1.43002 10.1546C0.727551 9.46427 0.72853 8.34719 1.43221 7.65803L8.17299 1.05621C8.87666 0.36703 10.0173 0.366071 10.7221 1.05406L17.4861 7.65587C18.1927 8.34555 18.1937 9.46591 17.4883 10.1568L10.7243 16.7813Z" fill="#0328EE"/>
<path d="M20.0422 16.7785C19.338 17.4705 18.194 17.4715 17.4886 16.7806L10.7247 10.1561C10.0193 9.46528 10.0203 8.34493 10.7269 7.65525L17.4908 1.05345C18.1957 0.365462 19.3363 0.36642 20.04 1.05559L26.7808 7.6574C27.4844 8.34656 27.4854 9.46365 26.783 10.154L20.0422 16.7785Z" fill="white"/>
<path d="M26.9489 16.7798C26.2441 17.4711 25.1003 17.4711 24.3955 16.7798L17.642 10.1551C16.938 9.4645 16.9389 8.34559 17.6442 7.65617L24.3977 1.05419C25.102 0.365726 26.2425 0.365726 26.9467 1.05419L33.7002 7.65617C34.4055 8.34559 34.4065 9.4645 33.7024 10.1551L26.9489 16.7798Z" fill="#0328EE"/>
</svg>
