<svg width="359" height="217" viewBox="0 0 359 217" fill="none" xmlns="http://www.w3.org/2000/svg">
<path d="M31.8003 9.68568C31.8003 4.65076 35.8819 0.569153 40.9168 0.569153H317.619C322.654 0.569153 326.736 4.65076 326.736 9.68568V201.805H31.8003V9.68568Z" fill="#23213B"/>
<path d="M43.0868 214.516C42.9885 214.761 42.6742 215.282 42.2028 215.399C42.1537 215.743 41.9376 216.43 41.4662 216.43H21.2828C20.8114 216.43 20.5953 215.743 20.5462 215.399C20.0747 215.282 19.7604 214.761 19.6622 214.516H43.0868Z" fill="#23213B"/>
<path d="M338.751 214.516C338.653 214.761 338.338 215.282 337.867 215.399C337.818 215.743 337.602 216.43 337.13 216.43H316.947C316.476 216.43 316.259 215.743 316.21 215.399C315.739 215.282 315.425 214.761 315.326 214.516H338.751Z" fill="#23213B"/>
<path d="M358.294 203.035V201.66H0.00146484V203.035C0.00146484 207.054 0.00146484 209.063 0.772219 210.598C1.45019 211.948 2.532 213.046 3.86261 213.734C5.37529 214.516 7.35552 214.516 11.316 214.516H346.979C350.94 214.516 352.92 214.516 354.433 213.734C355.763 213.046 356.845 211.948 357.523 210.598C358.294 209.063 358.294 207.054 358.294 203.035Z" fill="#1C1B2D"/>
<path d="M148.075 201.66H210.393C210.393 204.343 208.218 206.518 205.535 206.518H152.933C150.25 206.518 148.075 204.343 148.075 201.66Z" fill="#353447"/>
<path d="M40.6612 5.66479C38.3775 5.66479 36.5261 7.5089 36.5261 9.78371V190.428H322.142V9.78372C322.142 7.5089 320.291 5.66479 318.007 5.66479H194.196C193.794 5.66479 193.468 5.9906 193.468 6.39251V9.30335C193.468 9.97319 192.925 10.5162 192.254 10.5162H166.28C165.476 10.5162 164.824 9.86459 164.824 9.06078V6.39251C164.824 5.9906 164.498 5.66479 164.096 5.66479H40.6612Z" fill="#353447"/>
</svg>
