<svg width="25" height="20" viewBox="0 0 25 20" fill="none" xmlns="http://www.w3.org/2000/svg">
<path d="M14.267 0.904297H11.0051C10.6645 0.904297 10.3883 1.18046 10.3883 1.52113V18.8881C10.3883 19.2288 10.6645 19.5049 11.0051 19.5049H14.267C14.6077 19.5049 14.8839 19.2288 14.8839 18.8881V1.52113C14.8839 1.18046 14.6077 0.904297 14.267 0.904297Z" fill="white"/>
<path d="M20.9154 19.5047C23.0259 19.5047 24.7368 17.7938 24.7368 15.6834C24.7368 13.5729 23.0259 11.862 20.9154 11.862C18.805 11.862 17.0941 13.5729 17.0941 15.6834C17.0941 17.7938 18.805 19.5047 20.9154 19.5047Z" fill="#0328EE"/>
<path d="M20.9154 8.54702C23.0259 8.54702 24.7368 6.83614 24.7368 4.72566C24.7368 2.61518 23.0259 0.904297 20.9154 0.904297C18.805 0.904297 17.0941 2.61518 17.0941 4.72566C17.0941 6.83614 18.805 8.54702 20.9154 8.54702Z" fill="#0328EE"/>
<path d="M4.35677 19.5047C6.46724 19.5047 8.17814 17.7938 8.17814 15.6834C8.17814 13.5729 6.46724 11.862 4.35677 11.862C2.24628 11.862 0.5354 13.5729 0.5354 15.6834C0.5354 17.7938 2.24628 19.5047 4.35677 19.5047Z" fill="#0328EE"/>
</svg>
