<svg width="21" height="22" viewBox="0 0 21 22" fill="none" xmlns="http://www.w3.org/2000/svg">
<path d="M16.645 9.76005C13.9065 9.76005 11.6835 7.54553 11.6835 4.82386C11.6835 4.46885 11.7258 4.13076 11.7933 3.79266H5.20049C2.64786 3.79266 0.577026 5.85505 0.577026 8.39077V16.8854C0.577026 19.4296 2.64786 21.4835 5.20049 21.4835H13.7374C16.2985 21.4835 18.3609 19.4212 18.3609 16.8854V9.44733C17.8368 9.6417 17.2536 9.76005 16.645 9.76005Z" fill="#0328EE"/>
<path d="M18.3688 16.8854V9.44733C17.8363 9.6417 17.2531 9.76005 16.653 9.76005C13.9144 9.76005 11.6914 7.54553 11.6914 4.82386C11.6914 4.46885 11.7337 4.13076 11.8013 3.79266H5.20842C2.6727 3.79266 0.61877 5.82124 0.584961 8.34008C6.67069 10.8504 12.9255 13.9017 18.335 17.4686C18.3519 17.2742 18.3688 17.0798 18.3688 16.8854Z" fill="#0328EE"/>
<path d="M17.0248 8.05502C19.0111 8.05502 20.6171 6.45752 20.6171 4.47966C20.6171 2.51025 19.0111 0.904297 17.0248 0.904297C15.0385 0.904297 13.4325 2.5018 13.4325 4.47966C13.4325 6.44907 15.0385 8.05502 17.0248 8.05502Z" fill="white"/>
</svg>
